<svg id="Layer_1" data-name="Layer 1" xmlns="http://www.w3.org/2000/svg" xmlns:xlink="http://www.w3.org/1999/xlink" viewBox="0 0 290.74 95.02"><defs><style>.cls-1{fill:url(#linear-gradient);}.cls-2{fill:#ba2025;}</style><linearGradient id="linear-gradient" x1="4.06" y1="60.29" x2="67.98" y2="60.29" gradientUnits="userSpaceOnUse"><stop offset="0" stop-color="#d71920"/><stop offset="1" stop-color="#790000"/></linearGradient></defs><title>evaly svg format logo</title><path class="cls-1" d="M22.58,75.77c-0.33-6.72.81-5.88,11.15-6.14,8.92-.22,15.15-0.31,25.47-4.77,10.9-4.71,8.56-10.78,8.56-26.86S49.21,24.37,30.37,24.37,4.06,32.6,4.06,49.22s0.18,28.18.18,28.18C4.24,89.31,7.7,94.22,27.51,96s40.4-4.93,40.4-4.93V73.58C55.4,79.7,23,83.59,22.58,75.77ZM23,47.89C23,41,26.09,37.52,34,37.52s15.6-1,15.6,5.69,1,9.25-3.57,11.21a22.9,22.9,0,0,1-10.63,2C22.42,56.41,23,47.89,23,47.89Z" transform="translate(-4.06 -1.33)"/><path d="M180.07,45.83c0.32,6.59-.8,5.77-10.93,6-8.74.21-14.85,0.31-25,4.67-10.69,4.61-8.39,10.56-8.39,26.33S154,96.22,172.43,96.22s25.8-8.06,25.8-24.36-0.17-27.62-.17-27.62c0-11.68-3.39-16.5-22.82-18.28s-31.85,4.1-31.85,4.1V47.25C155.65,41.25,179.69,38.16,180.07,45.83Zm-0.38,27.34c0,6.8-3.06,10.17-10.77,10.17s-15.3,1-15.3-5.58-1-9.06,3.5-11a22.45,22.45,0,0,1,10.42-1.95C180.23,64.81,179.69,73.16,179.69,73.16Z" transform="translate(-4.06 -1.33)"/><path d="M90,96.35q-1.39-.06-2.14-3.73L71.9,28.18a7.69,7.69,0,0,1-.23-1.66q0-1.3,1-1.3H90q1.45,0,2.2,3.67L103,74.12l10.89-45.23q0.69-3.67,2.14-3.67h17.43q0.93,0,.93,1.3a7.8,7.8,0,0,1-.23,1.66L118.22,92.62q-0.75,3.73-2.2,3.73H90Z" transform="translate(-4.06 -1.33)"/><path d="M208.78,1.52h17.37q1.45,0,1.45,2.95V93.4q0,3-1.39,2.95H208.78q-1.45,0-1.45-2.95V4.47Q207.33,1.52,208.78,1.52Z" transform="translate(-4.06 -1.33)"/><path d="M235.43,74.36c2,0.71,3.89,1.45,5.84,2.08a77.92,77.92,0,0,0,27.45,3.94,27.38,27.38,0,0,0,6.45-1.32,3.52,3.52,0,0,0,2.54-3.92c0-.56,0-1.13-0.08-1.69-0.21-2.29-1-3.09-3.36-3.2-3.6-.18-7.19-0.4-10.79-0.44a46.53,46.53,0,0,1-21.83-5.35c-3.93-2.11-6.1-5.28-6.22-9.7-0.13-5.1,0-10.2-.07-15.3q0-5.23-.08-10.47c0-3.6,1.71-5.44,5.31-5.49q3.21-.05,6.41,0c3.83,0.06,5.36,1.61,5.37,5.47,0,6.9,0,13.81,0,20.71,0,0.6,0,1.2.1,1.8a3.66,3.66,0,0,0,2,3c5.76,3,11.77,3.79,17.9,1.42,3.68-1.42,5.53-4,5.43-7.65-0.18-6.49-.06-13-0.05-19.47a8.2,8.2,0,0,1,.23-2.11,3.63,3.63,0,0,1,3.38-3,84.81,84.81,0,0,1,9.1-.1c2.92,0.17,4.31,1.9,4.31,4.84q0,10,0,19.92c0,10-.08,20-0.19,30.05a31.44,31.44,0,0,1-.54,6,11.4,11.4,0,0,1-8.63,9.15,72.81,72.81,0,0,1-23.8,2.63c-8.63-.49-17-2.5-25.25-4.71a1.16,1.16,0,0,1-1.1-1.18q0-7.82,0-15.64A1.44,1.44,0,0,1,235.43,74.36Z" transform="translate(-4.06 -1.33)"/><path class="cls-2" d="M18.46,8.71c0,3.75-2.41,7.37-7.2,7.37s-7.2-3.63-7.2-7.41,2.39-7.35,7.2-7.35S18.49,4.86,18.46,8.71Zm-13.32,0c0,3.22,2.06,6.37,6.12,6.37s6.14-3.14,6.14-6.37-2-6.35-6.14-6.35S5.12,5.33,5.14,8.69Z" transform="translate(-4.06 -1.33)"/><path class="cls-2" d="M21.88,5.75v1.8a4,4,0,0,1,3.59-2A4.2,4.2,0,0,1,30,10v5.81H29V10a3.23,3.23,0,0,0-3.59-3.49,3.5,3.5,0,0,0-3.53,3.67v5.61h-1V5.75h1Z" transform="translate(-4.06 -1.33)"/><path class="cls-2" d="M33.64,1.55V15.83h-1V1.55h1Z" transform="translate(-4.06 -1.33)"/><path class="cls-2" d="M37.76,2.47a0.81,0.81,0,0,1-1.61,0A0.81,0.81,0,0,1,37.76,2.47ZM36.44,5.71V15.83h1V5.71h-1Z" transform="translate(-4.06 -1.33)"/><path class="cls-2" d="M41.27,5.75v1.8a4,4,0,0,1,3.59-2A4.2,4.2,0,0,1,49.42,10v5.81h-1V10a3.23,3.23,0,0,0-3.59-3.49,3.5,3.5,0,0,0-3.53,3.67v5.61h-1V5.75h1Z" transform="translate(-4.06 -1.33)"/><path class="cls-2" d="M51.46,10.79a5.07,5.07,0,0,1,5.12-5.2c2.84,0,5.37,1.73,5,5.67H52.48A4,4,0,0,0,56.58,15a4.74,4.74,0,0,0,3.63-1.53L60.93,14A5.54,5.54,0,0,1,56.58,16,4.94,4.94,0,0,1,51.46,10.79Zm9.2-.41c0-2.49-1.65-3.88-4.08-3.88a4,4,0,0,0-4.1,3.88h8.18Z" transform="translate(-4.06 -1.33)"/><path class="cls-2" d="M79.22,4.31c-1-1.67-2.71-1.92-4.33-1.94s-4.33.61-4.33,2.9c0,1.82,2,2.24,4.37,2.69,2.75,0.53,5.61,1,5.61,4.1s-3.26,4-5.65,4c-2.22,0-4.75-.92-5.86-3.1l1-.49c0.88,1.73,3.12,2.59,4.88,2.59s4.55-.49,4.55-3c0-2.14-2.35-2.61-4.69-3.06-2.61-.51-5.28-1-5.28-3.67-0.06-3,3.08-4,5.43-4,2,0,3.82.33,5.22,2.43Z" transform="translate(-4.06 -1.33)"/><path class="cls-2" d="M83.86,1.55V7.63a4,4,0,0,1,3.63-2c2.82,0,4.22,1.82,4.22,4.45v5.77h-1V10.06c0-2.08-1-3.49-3.24-3.49A3.56,3.56,0,0,0,83.9,10.3v5.53h-1V1.55h1Z" transform="translate(-4.06 -1.33)"/><path class="cls-2" d="M93.87,10.82a5.12,5.12,0,1,1,10.24,0A5.12,5.12,0,1,1,93.87,10.82Zm9.26,0a4.15,4.15,0,1,0-8.28,0A4.14,4.14,0,1,0,103.13,10.82Z" transform="translate(-4.06 -1.33)"/><path class="cls-2" d="M106.42,20V5.75h1V8.14a4.8,4.8,0,0,1,4.37-2.53,4.86,4.86,0,0,1,4.9,5.18A4.88,4.88,0,0,1,111.54,16a4.55,4.55,0,0,1-4.16-2.51V20h-1Zm9.24-9.24a3.88,3.88,0,0,0-4.12-4.22,4,4,0,0,0-4.08,4.24,4.06,4.06,0,0,0,4.08,4.24A3.92,3.92,0,0,0,115.66,10.79Z" transform="translate(-4.06 -1.33)"/><path class="cls-2" d="M119.12,20V5.75h1V8.14a4.8,4.8,0,0,1,4.37-2.53,4.86,4.86,0,0,1,4.9,5.18A4.88,4.88,0,0,1,124.24,16a4.55,4.55,0,0,1-4.16-2.51V20h-1Zm9.24-9.24a3.88,3.88,0,0,0-4.12-4.22,4,4,0,0,0-4.08,4.24,4.06,4.06,0,0,0,4.08,4.24A3.92,3.92,0,0,0,128.36,10.79Z" transform="translate(-4.06 -1.33)"/><path class="cls-2" d="M133.14,2.47a0.81,0.81,0,0,1-1.61,0A0.81,0.81,0,0,1,133.14,2.47Zm-1.33,3.24V15.83h1V5.71h-1Z" transform="translate(-4.06 -1.33)"/><path class="cls-2" d="M136.65,5.75v1.8a4,4,0,0,1,3.59-2A4.2,4.2,0,0,1,144.8,10v5.81h-1V10a3.23,3.23,0,0,0-3.59-3.49,3.5,3.5,0,0,0-3.53,3.67v5.61h-1V5.75h1Z" transform="translate(-4.06 -1.33)"/><path class="cls-2" d="M155.52,5.35l0.65,0.57-1,1.14a4.72,4.72,0,0,1,1.25,3.43,4.77,4.77,0,0,1-2.71,4.28,3.69,3.69,0,0,1,2.75,3.61c0,2.71-2.12,4-4.8,4s-4.77-1.47-4.77-4h1c0,2.06,1.76,3,3.77,3s3.82-.9,3.82-3-1.94-3-3.82-3a4.62,4.62,0,0,1-4.73-4.88,4.58,4.58,0,0,1,4.73-4.92,5.12,5.12,0,0,1,2.86.92Zm-7.57,5.14a3.69,3.69,0,0,0,3.73,3.88,3.87,3.87,0,0,0,3.78-3.88,3.63,3.63,0,0,0-3.78-3.92A3.56,3.56,0,0,0,147.95,10.49Z" transform="translate(-4.06 -1.33)"/><path class="cls-2" d="M176.76,3.14l-5.47,8.37h-0.37l-5.51-8.37V15.83h-1.1V1.55h1.31l5.47,8.33,5.41-8.33h1.35V15.83h-1.08V3.14Z" transform="translate(-4.06 -1.33)"/><path class="cls-2" d="M190.71,5.75V15.83h-1V13.69A4.71,4.71,0,0,1,185.59,16a5,5,0,0,1-5.12-5.2,5,5,0,0,1,5.12-5.16A4.57,4.57,0,0,1,189.71,8V5.75h1Zm-9.24,5A4,4,0,0,0,185.59,15c5.61,0,5.61-8.43,0-8.43A4,4,0,0,0,181.47,10.79Z" transform="translate(-4.06 -1.33)"/><path class="cls-2" d="M194.43,1.55V15.83h-1V1.55h1Z" transform="translate(-4.06 -1.33)"/><path class="cls-2" d="M198.23,1.55V15.83h-1V1.55h1Z" transform="translate(-4.06 -1.33)"/></svg>