<svg xmlns="http://www.w3.org/2000/svg" width="80" height="80" viewBox="0 0 80 80">
  <g id="Group_3" data-name="Group 3" transform="translate(183.812 6.529)">
    <path id="Ellipse_" data-name="Ellipse " d="M-143.812-5.529a39,39,0,0,1,39,39,39,39,0,0,1-39,39,39,39,0,0,1-39-39A39,39,0,0,1-143.812-5.529Z" fill="rgba(255,255,255,0)" stroke="#fff" stroke-linejoin="round" stroke-width="2" fill-rule="evenodd"/>
    <path id="Icons" d="M-135.5,23.754h-3.47c-1.384,0-1.672.538-1.672,1.889v2.97h5.142l-.537,4.856h-4.606v17h-7.714v-17H-153.5V28.613h5.143v-5.6c0-4.3,2.393-6.54,7.79-6.54h5.067v7.281Z" fill="#fff" fill-rule="evenodd"/>
  </g>
</svg>
