<svg xmlns="http://www.w3.org/2000/svg" width="40" height="49.333" viewBox="0 0 40 49.333">
  <g id="Group_61" data-name="Group 61" transform="translate(0 0)">
    <g id="Group_60" data-name="Group 60" transform="translate(0)">
      <path id="Path_20" data-name="Path 20" d="M103.848,47.6l-7.03-13.758a1.277,1.277,0,0,0-.675-.6l-3.5-1.44,6.06-9.4c.014-.023.028-.045.041-.069a14.267,14.267,0,0,0,1.816-6.987,14.692,14.692,0,0,0-4.94-10.927,17.517,17.517,0,0,0-23.411.132,14.7,14.7,0,0,0-4.825,10.7,14.46,14.46,0,0,0,1.815,7.08q.019.035.041.069l6.06,9.4-3.518,1.448a1.273,1.273,0,0,0-.655.592L64.1,47.6a1.15,1.15,0,0,0,.249,1.371,1.394,1.394,0,0,0,1.476.261L74.632,45.6l8.807,3.627a1.415,1.415,0,0,0,1.07,0L93.316,45.6l8.807,3.627a1.406,1.406,0,0,0,.535.105,1.37,1.37,0,0,0,.941-.366A1.15,1.15,0,0,0,103.848,47.6ZM71.525,21.189a11.994,11.994,0,0,1-1.507-5.921c.045-6.979,6.216-12.735,13.758-12.832a14.478,14.478,0,0,1,10,3.717,12.36,12.36,0,0,1,4.157,9.193,12,12,0,0,1-1.507,5.843L85.1,38.739a1.372,1.372,0,0,1-2.26,0ZM93.851,43.156a1.415,1.415,0,0,0-1.07,0l-8.807,3.627-8.807-3.627a1.415,1.415,0,0,0-1.07,0L68,45.669,73.3,35.287l3.36-1.383,3.923,6.083a4.117,4.117,0,0,0,6.78,0L91.287,33.9l3.36,1.384,5.305,10.382Z" transform="translate(-63.974 0)" fill="#299568"/>
    </g>
  </g>
</svg>
