<svg xmlns="http://www.w3.org/2000/svg" width="40" height="40.058" viewBox="0 0 40 40.058">
  <g id="phone-call" transform="translate(-0.345 0)">
    <g id="Group_59" data-name="Group 59" transform="translate(0.344 0)">
      <path id="Path_17" data-name="Path 17" d="M31.872,49.835a3.927,3.927,0,0,0-2.848-1.306,4.061,4.061,0,0,0-2.882,1.3l-2.663,2.655c-.219-.118-.438-.228-.649-.337-.3-.152-.59-.3-.834-.447a28.945,28.945,0,0,1-6.936-6.321,17.079,17.079,0,0,1-2.275-3.591c.691-.632,1.332-1.29,1.955-1.922.236-.236.472-.48.708-.716a3.867,3.867,0,0,0,0-5.833l-2.3-2.3c-.261-.261-.531-.531-.784-.8-.506-.523-1.037-1.062-1.584-1.568a3.989,3.989,0,0,0-2.823-1.239A4.128,4.128,0,0,0,5.09,28.645l-.017.017L2.208,31.553A6.167,6.167,0,0,0,.379,35.472a14.778,14.778,0,0,0,1.079,6.254A36.292,36.292,0,0,0,7.9,52.481,39.659,39.659,0,0,0,21.11,62.823a20.573,20.573,0,0,0,7.416,2.191c.177.008.362.017.531.017a6.35,6.35,0,0,0,4.863-2.09c.008-.017.025-.025.034-.042a19.158,19.158,0,0,1,1.475-1.526c.362-.346.733-.708,1.1-1.087A4.2,4.2,0,0,0,37.8,57.37a4.051,4.051,0,0,0-1.3-2.891Zm3.017,8.875c-.008,0-.008.008,0,0-.329.354-.666.674-1.028,1.028a22.161,22.161,0,0,0-1.626,1.686,4.062,4.062,0,0,1-3.169,1.34c-.126,0-.261,0-.388-.008A18.276,18.276,0,0,1,22.1,60.783,37.435,37.435,0,0,1,9.666,51.04,34.219,34.219,0,0,1,3.6,40.934a12.036,12.036,0,0,1-.944-5.276,3.869,3.869,0,0,1,1.163-2.5L6.691,30.28a1.916,1.916,0,0,1,1.281-.6,1.8,1.8,0,0,1,1.23.59l.025.025c.514.48,1,.978,1.517,1.509.261.27.531.539.8.818l2.3,2.3a1.609,1.609,0,0,1,0,2.613c-.244.244-.48.489-.725.725-.708.725-1.382,1.4-2.115,2.057-.017.017-.034.025-.042.042a1.719,1.719,0,0,0-.438,1.913l.025.076a18.474,18.474,0,0,0,2.722,4.442l.008.008a30.933,30.933,0,0,0,7.483,6.81,11.507,11.507,0,0,0,1.037.565c.3.152.59.3.834.447.034.017.067.042.1.059a1.827,1.827,0,0,0,.834.211,1.8,1.8,0,0,0,1.281-.582l2.882-2.883a1.906,1.906,0,0,1,1.273-.632,1.716,1.716,0,0,1,1.214.615l.017.017,4.643,4.644A1.667,1.667,0,0,1,34.889,58.71Z" transform="translate(-0.344 -24.973)" fill="#299568"/>
      <path id="Path_18" data-name="Path 18" d="M245.93,88.3a11.425,11.425,0,0,1,9.3,9.3,1.191,1.191,0,0,0,1.181.994,1.586,1.586,0,0,0,.2-.018A1.2,1.2,0,0,0,257.6,97.2a13.815,13.815,0,0,0-11.256-11.256,1.2,1.2,0,0,0-1.385.977A1.185,1.185,0,0,0,245.93,88.3Z" transform="translate(-224.711 -78.817)" fill="#299568"/>
      <path id="Path_19" data-name="Path 19" d="M268.7,18.554A22.748,22.748,0,0,0,250.167.018a1.2,1.2,0,1,0-.391,2.361,20.318,20.318,0,0,1,16.565,16.565,1.191,1.191,0,0,0,1.181.994,1.584,1.584,0,0,0,.2-.018A1.176,1.176,0,0,0,268.7,18.554Z" transform="translate(-228.722 0)" fill="#299568"/>
    </g>
  </g>
</svg>
