<svg xmlns="http://www.w3.org/2000/svg" width="41.059" height="41.059" viewBox="0 0 41.059 41.059">
  <g id="scanner" transform="translate(-0.5 0.001)">
    <path id="Path_22" data-name="Path 22" d="M33.139,21.731H7.51a3.6,3.6,0,0,0-.457-.879L33.747,2.188A1.2,1.2,0,1,0,32.369.216L4.91,19.416A3.605,3.605,0,0,0,.5,22.934V34.963a1.2,1.2,0,0,0,1.2,1.2h1.2v3.689a1.2,1.2,0,0,0,1.2,1.2H37.95a1.2,1.2,0,0,0,1.2-1.2V36.166h1.2a1.2,1.2,0,0,0,1.2-1.2V30.151a8.43,8.43,0,0,0-8.42-8.42Zm-29.03,0a1.2,1.2,0,1,1-1.2,1.2A1.2,1.2,0,0,1,4.109,21.731ZM36.747,38.652H5.312V36.165H36.747Zm2.406-4.892H2.906V26.336a3.607,3.607,0,0,0,4.6-2.2H33.139a6.021,6.021,0,0,1,6.014,6.014Zm0,0" transform="translate(0 0)" fill="#299568"/>
    <path id="Path_23" data-name="Path 23" d="M61.7,331a1.2,1.2,0,0,0-1.2,1.2v2.406a1.2,1.2,0,1,0,2.406,0V332.2A1.2,1.2,0,0,0,61.7,331Zm0,0" transform="translate(-55.188 -304.457)" fill="#299568"/>
    <path id="Path_24" data-name="Path 24" d="M121.7,331a1.2,1.2,0,0,0-1.2,1.2v2.406a1.2,1.2,0,1,0,2.406,0V332.2A1.2,1.2,0,0,0,121.7,331Zm0,0" transform="translate(-110.377 -304.457)" fill="#299568"/>
    <path id="Path_25" data-name="Path 25" d="M271.5,152.2v4.812a1.2,1.2,0,0,0,2.406,0V152.2a1.2,1.2,0,1,0-2.406,0Zm0,0" transform="translate(-249.268 -138.892)" fill="#299568"/>
    <path id="Path_26" data-name="Path 26" d="M331.5,152.2v4.812a1.2,1.2,0,0,0,2.406,0V152.2a1.2,1.2,0,1,0-2.406,0Zm0,0" transform="translate(-304.456 -138.892)" fill="#299568"/>
    <path id="Path_27" data-name="Path 27" d="M392.7,151a1.2,1.2,0,0,0-1.2,1.2v4.812a1.2,1.2,0,0,0,2.406,0V152.2A1.2,1.2,0,0,0,392.7,151Zm0,0" transform="translate(-359.645 -138.892)" fill="#299568"/>
  </g>
</svg>
